External Loads File
version=1
nRows=31
nColumns=13
Range=5.000000e-03-10 seconds
endheader
time 	forceRightX 	forceRightY 	forceRightZ 	pointRightX 	pointRightY 	pointRightZ 	forceLeftX 	forceLeftY 	forceLeftZ 	pointLeftX 	pointLeftY 	pointLeftZ 		
2.505000 -253.106706 847.555147 -0.000000 0.408585 0.300788 -0.164143 50.299046 -116.520879 -0.000000 0.109469 0.330711 -0.409397
2.510000 -243.402609 849.955095 -0.000000 0.408309 0.294151 -0.163871 46.897338 -118.271501 -0.000000 0.111008 0.336841 -0.409320
2.515000 -233.750833 852.113293 -0.000000 0.407681 0.287817 -0.164245 43.433658 -119.874799 -0.000000 0.112746 0.342986 -0.409425
2.520000 -221.480876 854.696129 -0.000000 0.406781 0.280584 -0.163894 39.614987 -121.347395 -0.000000 0.114632 0.348922 -0.409479
2.525000 -209.639164 856.819837 -0.000000 0.405684 0.274073 -0.163802 36.065020 -122.457909 -0.000000 0.116761 0.355186 -0.409658
2.530000 -198.867713 858.300235 -0.000000 0.404436 0.267553 -0.163743 33.030540 -123.190718 -0.000000 0.119086 0.360862 -0.409751
2.535000 -187.407032 859.431604 -0.000000 0.402894 0.261139 -0.163679 30.294826 -123.669288 -0.000000 0.121595 0.366626 -0.409807
2.540000 -175.199384 860.023335 -0.000000 0.401198 0.254737 -0.163620 27.839727 -123.933268 -0.000000 0.124297 0.372458 -0.409830
2.545000 -162.371399 859.846881 -0.000000 0.399181 0.248433 -0.163546 25.681488 -123.990377 -0.000000 0.127184 0.378335 -0.409836
2.550000 -149.919061 858.522728 -0.000000 0.397047 0.242214 -0.163596 23.932750 -123.798937 -0.000000 0.130107 0.384044 -0.410428
2.555000 -137.337612 855.976421 -0.000000 0.394634 0.236129 -0.163503 22.413748 -123.326611 -0.000000 0.133303 0.389640 -0.410464
2.560000 -124.501017 852.083101 -0.000000 0.391983 0.230198 -0.163246 20.910480 -122.473495 -0.000000 0.136764 0.395219 -0.409980
2.565000 -111.912926 846.658015 -0.000000 0.389227 0.224254 -0.163410 19.268195 -121.087663 -0.000000 0.140221 0.400671 -0.409912
2.570000 -98.829426 839.703452 -0.000000 0.386095 0.218460 -0.163069 17.240587 -119.088967 -0.000000 0.143873 0.406148 -0.409598
2.575000 -85.438190 831.086490 -0.000000 0.382973 0.212855 -0.163232 14.849447 -116.481709 -0.000000 0.147902 0.411767 -0.409450
2.580000 -72.215438 820.685683 -0.000000 0.379597 0.207357 -0.163156 12.204283 -113.347105 -0.000000 0.152280 0.416957 -0.409490
2.585000 -60.081126 808.421396 -0.000000 0.375909 0.202036 -0.163076 9.437323 -109.791739 -0.000000 0.156190 0.422002 -0.409658
2.590000 -47.106706 794.469089 -0.000000 0.372132 0.196833 -0.163019 6.288927 -105.999924 -0.000000 0.160660 0.427084 -0.409964
2.595000 -35.854897 778.701164 -0.000000 0.368132 0.191900 -0.162982 3.169762 -102.181950 -0.000000 0.164653 0.431884 -0.409641
2.600000 -23.168047 761.329049 -0.000000 0.364025 0.187018 -0.163031 -0.219726 -98.606799 -0.000000 0.169463 0.436695 -0.409408
2.605000 -10.253708 742.340336 -0.000000 0.359548 0.182477 -0.163373 -3.613538 -95.412058 -0.000000 0.174488 0.441454 -0.409101
2.610000 1.602761 721.825430 -0.000000 0.355045 0.178098 -0.163419 -6.791020 -92.570742 -0.000000 0.179327 0.446036 -0.408977
2.615000 13.261536 699.904534 -0.000000 0.350278 0.173797 -0.163124 -9.839126 -89.864700 -0.000000 0.184146 0.450422 -0.408916
2.620000 24.031307 676.625716 -0.000000 0.345600 0.169865 -0.163272 -12.645013 -86.992756 -0.000000 0.189111 0.454593 -0.408801
2.625000 34.507820 651.914341 -0.000000 0.340566 0.165981 -0.163070 -15.275717 -83.597664 -0.000000 0.193827 0.458622 -0.409073
2.630000 44.686891 625.599508 -0.000000 0.335535 0.162396 -0.163023 -17.795723 -79.241049 -0.000000 0.198894 0.462317 -0.409118
2.635000 54.784013 597.401568 -0.000000 0.330363 0.159163 -0.162989 -20.371567 -73.385747 -0.000000 0.204222 0.465872 -0.409223
2.640000 64.169903 567.038084 -0.000000 0.325129 0.155991 -0.162911 -23.066302 -65.554491 -0.000000 0.209582 0.469009 -0.409137
2.645000 72.737678 534.159221 -0.000000 0.319622 0.153114 -0.163037 -25.965431 -55.373349 -0.000000 0.214812 0.471917 -0.409341
2.650000 80.064704 498.483192 -0.000000 0.314210 0.150377 -0.163027 -29.067778 -42.560621 -0.000000 0.220141 0.474510 -0.409533
2.655000 85.940762 459.824108 -0.000000 0.308749 0.148006 -0.163031 -32.328237 -26.859315 -0.000000 0.225565 0.476618 -0.409684
